<?xml version="1.0" standalone="no"?>
<!DOCTYPE svg PUBLIC "-//W3C//DTD SVG 1.1//EN" "http://www.w3.org/Graphics/SVG/1.1/DTD/svg11.dtd" >
<svg xmlns="http://www.w3.org/2000/svg" xmlns:xlink="http://www.w3.org/1999/xlink" version="1.1">
<metadata></metadata>
<defs>
<font id="elaine_sansregular" horiz-adv-x="1228" >
<font-face units-per-em="2048" ascent="1556" descent="-492" />
<missing-glyph horiz-adv-x="618" />
<glyph unicode="&#xfb01;" horiz-adv-x="1349" d="M66 883v141h204v172q0 141 86 225t250 84q117 0 174 -47l-43 -133q-48 31 -116 31q-186 0 -187 -176v-156h342v-141h-342v-883h-164v883h-204zM954 1343.5q0 55.5 34 89t89.5 33.5t89 -33.5t33.5 -89t-33.5 -89t-89 -33.5t-89.5 33.5t-34 89zM995 0v1024h164v-1024h-164z " />
<glyph unicode="&#xfb02;" horiz-adv-x="1431" d="M66 883v141h204v172q0 141 86 225t250 84q117 0 174 -47l-43 -133q-48 31 -116 31q-186 0 -187 -176v-156h342v-141h-342v-883h-164v883h-204zM987 254v1241h164v-1235q0 -76 27.5 -106.5t93.5 -30.5q63 0 139 29l-27 -144q-68 -29 -151 -28q-246 0 -246 274z" />
<glyph unicode="&#xd;" horiz-adv-x="698" />
<glyph horiz-adv-x="0" />
<glyph horiz-adv-x="0" />
<glyph unicode="&#x9;" horiz-adv-x="681" />
<glyph unicode=" "  horiz-adv-x="618" />
<glyph unicode="&#x09;" horiz-adv-x="618" />
<glyph unicode="&#xa0;" horiz-adv-x="618" />
<glyph unicode="!" horiz-adv-x="557" d="M145 112.5q0 59.5 37 96.5t96.5 37t96.5 -37t37 -96.5t-37 -96t-96.5 -36.5t-96.5 36.5t-37 96zM193 766v586h172v-586l-25 -340h-123z" />
<glyph unicode="&#x22;" horiz-adv-x="825" d="M168 907v506h180l-53 -506h-127zM514 907v506h180l-53 -506h-127z" />
<glyph unicode="#" horiz-adv-x="1236" d="M39 383v125h264l53 346h-215v125h234l55 373h143l-55 -373h316l55 373h143l-55 -373h221v-125h-240l-53 -346h191v-125h-209l-58 -383h-143l57 383h-315l-57 -383h-144l58 383h-246zM446 508h316l53 346h-315z" />
<glyph unicode="$" d="M74 293l139 113q109 -213 346 -248v450l-88 21q-336 74 -336 336q0 150 115 259t309 128v204h141v-206q283 -27 430 -275l-133 -102q-111 195 -297 227v-459l105 -22q180 -41 259 -124t79 -212q0 -158 -120 -261.5t-323 -117.5v-209h-141v211q-332 29 -485 287zM301 987 q0 -76 48 -127t171 -78l39 -8v430q-127 -10 -192.5 -69.5t-65.5 -147.5zM700 154q131 10 204 64t73 151q0 147 -199 190l-78 19v-424z" />
<glyph unicode="%" horiz-adv-x="1753" d="M82 999q0 170 88 271.5t237.5 101.5t237.5 -101.5t88 -271.5t-88 -271t-237.5 -101t-237.5 101t-88 271zM227 999.5q0 -116.5 47.5 -180t133.5 -63.5t133 63.5t47 180t-47 180t-133 63.5t-133.5 -63.5t-47.5 -180zM369 0l860 1352h155l-860 -1352h-155zM1020 352 q0 170 88 271.5t237.5 101.5t237.5 -101.5t88 -271.5t-88 -271t-237.5 -101t-237.5 101t-88 271zM1165 352.5q0 -116.5 47.5 -180t133.5 -63.5t133 63.5t47 180t-47 180t-133 63.5t-133.5 -63.5t-47.5 -180z" />
<glyph unicode="&#x26;" horiz-adv-x="1275" d="M98 344q0 131 71 231.5t241 178.5q-78 106 -109 174.5t-31 142.5q0 123 86 212t250 89q131 0 213 -73.5t82 -198.5q0 -115 -59.5 -203t-223.5 -180l144 -180q39 -49 99.5 -122t66.5 -81q94 172 80 389l139 -12q16 -272 -131 -473q80 -82 136 -109t132 -27l-41 -122 q-84 0 -151.5 29.5t-161.5 123.5q-160 -154 -402 -153q-199 0 -314.5 101t-115.5 263zM254 358q0 -113 82 -179t209 -66q170 0 295 114q-86 94 -189 222l-168 208q-131 -68 -180 -132.5t-49 -166.5zM424 1073q0 -55 21.5 -104t95.5 -152q119 66 169 123t50 141q0 72 -44 112 t-120 40q-84 0 -128 -46t-44 -114z" />
<glyph unicode="'" horiz-adv-x="479" d="M168 907v506h180l-53 -506h-127z" />
<glyph unicode="(" horiz-adv-x="716" d="M125 575.5q0 583.5 438 962.5l94 -94q-197 -180 -280.5 -390t-83.5 -478.5t84 -478.5t280 -390l-94 -94q-438 379 -438 962.5z" />
<glyph unicode=")" horiz-adv-x="716" d="M59 -293q197 180 281 390t84 478.5t-84 478.5t-281 390l95 94q438 -379 438 -962.5t-438 -962.5z" />
<glyph unicode="*" horiz-adv-x="1171" d="M109 1100l38 125l238 -74l154 -72l-21 168v248h135v-248l-20 -168l153 72l238 74l39 -125l-234 -78l-167 -33l116 -125l144 -200l-107 -78l-147 198l-82 150l-82 -150l-148 -198l-106 78l143 200l117 125l-168 33z" />
<glyph unicode="+" horiz-adv-x="1236" d="M121 571v154h422v430h153v-430h420v-154h-420v-432h-153v432h-422z" />
<glyph unicode="," horiz-adv-x="614" d="M154 -219q80 27 133 84t67 125l-8 4q-18 -14 -57 -14q-43 0 -78 33.5t-35 95.5q0 55 39 96t94 41q72 0 113 -55.5t41 -143.5q0 -109 -55.5 -201t-167.5 -145z" />
<glyph unicode="-" horiz-adv-x="1044" d="M184 451v170h676v-170h-676z" />
<glyph unicode="." horiz-adv-x="614" d="M174 112.5q0 59.5 37 96.5t96.5 37t96 -37t36.5 -96.5t-36.5 -96t-96 -36.5t-96.5 36.5t-37 96z" />
<glyph unicode="/" horiz-adv-x="894" d="M57 -143l627 1638h154l-627 -1638h-154z" />
<glyph unicode="0" d="M111 676q0 334 135 515t368.5 181t368.5 -181t135 -515t-135 -515t-368.5 -181t-368.5 181t-135 515zM281 676q0 -268 86 -408.5t247.5 -140.5t247.5 140.5t86 408.5t-86 408.5t-247.5 140.5t-247.5 -140.5t-86 -408.5z" />
<glyph unicode="1" d="M154 1108q82 10 239.5 91t210.5 153h144v-1205h366v-147h-938v147h408v1012q-74 -70 -179.5 -123t-207.5 -78z" />
<glyph unicode="2" d="M123 971q27 182 148.5 291.5t322.5 109.5q205 0 329 -117.5t124 -306.5q0 -195 -145.5 -379t-502.5 -419v-3q135 6 203 7h473v-154h-909v133q414 303 561 471t147 344q0 121 -77.5 196t-208.5 75q-137 0 -222 -90.5t-100 -243.5z" />
<glyph unicode="3" d="M117 299l164 84q39 -121 122.5 -185.5t235.5 -64.5q131 0 205 69.5t74 182.5t-63.5 166t-207.5 53q-45 0 -104 -6v164q25 -2 67 -2q147 0 212 58.5t65 182.5q0 104 -65.5 161t-186.5 57q-123 0 -192.5 -53.5t-110.5 -155.5l-156 73q51 131 174 211t289 80 q201 0 309.5 -100t108.5 -252q0 -139 -74 -229.5t-180 -106.5v-4q129 -2 206.5 -89t77.5 -206q0 -180 -127.5 -293.5t-336.5 -113.5q-182 0 -319.5 86t-186.5 233z" />
<glyph unicode="4" d="M78 354v121l616 877h207v-856h240v-142h-240v-354h-164v354h-659zM252 496h485v505q0 41 4 118t4 100h-4q-51 -104 -135 -226z" />
<glyph unicode="5" d="M152 289l159 84q72 -240 303 -240q141 0 222.5 77t78.5 212q-2 141 -75.5 216t-210.5 75q-211 0 -301 -131l-144 26l80 744h760v-154h-621l-53 -426l-4 -18h4q109 113 309 112q193 0 309.5 -119.5t116.5 -316.5q0 -207 -131 -328.5t-344 -121.5q-336 0 -458 309z" />
<glyph unicode="6" d="M139 676q0 330 148 513t381 183q162 0 264 -67.5t166 -217.5l-152 -71q-66 203 -289 203q-172 0 -268 -162t-96 -412v-37h8q31 121 139.5 184.5t231.5 63.5q207 0 330.5 -119t123.5 -319.5t-126 -319t-338 -118.5q-248 0 -385.5 192.5t-137.5 503.5zM365 420 q0 -117 85 -200t209 -83q139 0 217 75t78 208q0 129 -78 203.5t-217 74.5q-131 0 -212.5 -77.5t-81.5 -200.5z" />
<glyph unicode="7" d="M102 1198v154h1047v-154q-520 -528 -520 -1198h-168q0 328 130 636t378 562h-867z" />
<glyph unicode="8" d="M137 365q0 123 65.5 213t182.5 133v2q-86 39 -137 118.5t-51 184.5q0 164 113.5 259t304 95t304 -95t113.5 -259q0 -102 -50 -182t-136 -121v-2q115 -45 180.5 -133.5t65.5 -212.5q0 -176 -130.5 -280.5t-347.5 -104.5q-215 0 -346 104t-131 281zM307 381 q0 -115 83 -181.5t224 -66.5q143 0 225.5 66.5t82.5 181.5q0 117 -83 183.5t-225 66.5q-139 0 -223 -67.5t-84 -182.5zM367 999q0 -98 67.5 -156.5t180 -58.5t180 58.5t67.5 156.5q0 102 -66.5 160t-181 58t-181 -57.5t-66.5 -160.5z" />
<glyph unicode="9" d="M111 285l161 86q72 -238 314 -238q201 0 282.5 152.5t81.5 445.5v19h-8q-35 -129 -141.5 -191.5t-235.5 -62.5q-207 0 -333 119.5t-119 318.5q6 203 129 320.5t336 117.5q250 0 386 -190.5t136 -505.5q0 -340 -133 -518t-387 -178q-170 0 -291 77.5t-178 227.5zM285 932 q-6 -129 74 -204t221 -75q131 0 212.5 78t81.5 201q0 127 -80.5 204.5t-213.5 77.5q-137 0 -213 -73.5t-82 -208.5z" />
<glyph unicode=":" horiz-adv-x="614" d="M174 112.5q0 59.5 37 96.5t96.5 37t96 -37t36.5 -96.5t-36.5 -96t-96 -36.5t-96.5 36.5t-37 96zM174 911.5q0 59.5 37 96t96.5 36.5t96 -36.5t36.5 -96t-36.5 -96.5t-96 -37t-96.5 37t-37 96.5z" />
<glyph unicode=";" horiz-adv-x="614" d="M143 -219q80 27 133.5 84t67.5 125l-8 4q-18 -14 -57 -14q-43 0 -78 33.5t-35 95.5q0 55 39 96t94 41q72 0 113 -55.5t41 -143.5q0 -109 -55.5 -201t-168.5 -145zM174 911.5q0 59.5 37 96t96.5 36.5t96 -36.5t36.5 -96t-36.5 -96.5t-96 -37t-96.5 37t-37 96.5z" />
<glyph unicode="&#x3c;" horiz-adv-x="1236" d="M145 518v191l975 460v-168l-844 -385l844 -387v-172z" />
<glyph unicode="=" horiz-adv-x="1236" d="M131 340v154h975v-154h-975zM131 750v153h975v-153h-975z" />
<glyph unicode="&#x3e;" horiz-adv-x="1236" d="M117 57v168l844 385l-844 387v172l975 -460v-191z" />
<glyph unicode="?" horiz-adv-x="1110" d="M80 1024q35 160 162 254t317 94q199 0 324 -94t125 -254q0 -170 -106.5 -265t-278.5 -114v-219h-170v307q207 31 295 92.5t88 178.5q0 100 -74 157.5t-215 57.5q-135 0 -220 -75t-102 -204zM401 112.5q0 59.5 37 96.5t96.5 37t96.5 -37t37 -96.5t-37 -96t-96.5 -36.5 t-96.5 36.5t-37 96z" />
<glyph unicode="@" horiz-adv-x="1961" d="M135 457q0 395 253 645t646 250q248 0 434.5 -109.5t278.5 -288t92 -395.5q0 -258 -124 -416.5t-292 -158.5q-109 0 -163 55t-43 147q-45 -86 -134.5 -137t-187.5 -51q-160 0 -259 112.5t-99 290.5q0 231 133 389t334 158q119 0 200.5 -60.5t108.5 -164.5l49 207h145 l-155 -668q-10 -47 -11 -72q0 -92 97 -92q117 0 198.5 122t81.5 339q0 293 -186 482.5t-492 189.5q-342 0 -555 -212t-213 -562q0 -336 204 -536t515 -200q262 0 443 140l71 -101q-100 -76 -216 -117.5t-298 -41.5q-385 0 -620.5 235.5t-235.5 620.5zM682 403 q0 -135 67.5 -207.5t192.5 -72.5q129 0 221 124t92 304q0 123 -66.5 196.5t-174.5 73.5q-145 0 -238.5 -119.5t-93.5 -298.5z" />
<glyph unicode="A" horiz-adv-x="1351" d="M53 0l527 1352h194l524 -1352h-174l-143 375h-612l-144 -375h-172zM428 528h494l-183 480l-63 188h-4l-60 -182z" />
<glyph unicode="B" horiz-adv-x="1337" d="M221 0v1352h481q233 0 347 -97.5t114 -275.5q0 -106 -60.5 -188t-166.5 -103v-2q119 -23 190.5 -108.5t71.5 -198.5q0 -174 -131 -276.5t-367 -102.5h-479zM385 154h354q287 0 287 225t-287 225h-354v-450zM385 758h320q286 0 286 219q0 221 -286 221h-320v-440z" />
<glyph unicode="C" horiz-adv-x="1404" d="M139 676q0 319 169 507.5t454 188.5q391 0 524 -315l-162 -76q-90 238 -350 238q-211 0 -337 -144.5t-126 -398.5t122 -398.5t333 -144.5q137 0 237.5 69.5t143.5 205.5l164 -62q-63 -172 -209 -269t-336 -97q-289 0 -458 187t-169 509z" />
<glyph unicode="D" horiz-adv-x="1476" d="M221 0v1352h436q319 0 499.5 -176.5t180.5 -500t-180 -499.5t-500 -176h-436zM385 154h289q231 0 361 138t130 384t-130 384t-361 138h-289v-1044z" />
<glyph unicode="E" horiz-adv-x="1306" d="M221 0v1352h948v-154h-784v-436h610v-154h-610v-454h815v-154h-979z" />
<glyph unicode="F" horiz-adv-x="1249" d="M221 0v1352h946v-154h-782v-436h610v-154h-610v-608h-164z" />
<glyph unicode="G" horiz-adv-x="1482" d="M139 676q0 317 177.5 506.5t463.5 189.5q199 0 325 -74.5t206 -234.5l-150 -82q-90 238 -381 238q-209 0 -339 -145.5t-130 -397.5q0 -258 119 -400.5t342 -142.5q176 0 287.5 90t111.5 258v47h-430v154h580v-682h-129l-6 182q-122 -202 -417 -202h-3q-289 0 -458 187 t-169 509z" />
<glyph unicode="H" horiz-adv-x="1503" d="M221 0v1352h164v-590h733v590h164v-1352h-164v608h-733v-608h-164z" />
<glyph unicode="I" horiz-adv-x="606" d="M221 0v1352h164v-1352h-164z" />
<glyph unicode="J" horiz-adv-x="1159" d="M96 446l152 31q-7 -52 -7 -95q0 -106 39 -165q56 -84 207 -84q168 0 234.5 90t66.5 281v848h164v-889q0 -227 -121.5 -355t-336.5 -128q-225 0 -332 126q-77 90 -77 228q0 52 11 112z" />
<glyph unicode="K" horiz-adv-x="1343" d="M221 0v1352h164v-697l680 697h215l-539 -551l545 -801h-196l-463 680l-242 -246v-434h-164z" />
<glyph unicode="L" horiz-adv-x="1224" d="M221 0v1352h164v-1198h774v-154h-938z" />
<glyph unicode="M" horiz-adv-x="1748" d="M221 0v1352h252l297 -822l102 -337h5l104 335l295 824h252v-1352h-156v850l19 356h-2l-445 -1206h-139l-445 1206h-2l19 -356v-850h-156z" />
<glyph unicode="N" horiz-adv-x="1503" d="M221 0v1352h203l563 -901l146 -261h2l-9 207v955h156v-1352h-203l-565 905l-143 254h-2l8 -205v-954h-156z" />
<glyph unicode="O" horiz-adv-x="1531" d="M139 675.5q0 321.5 169 509t458 187.5t458 -187.5t169 -509t-169 -508.5t-458 -187t-458 187t-169 508.5zM311 676q0 -254 122 -398.5t333 -144.5t333 144.5t122 398.5t-122 398.5t-333 144.5t-333 -144.5t-122 -398.5z" />
<glyph unicode="P" horiz-adv-x="1249" d="M221 0v1352h477q205 0 330 -112t125 -300t-125 -300t-330 -112h-313v-528h-164zM385 682h289q307 0 307 258t-307 258h-289v-516z" />
<glyph unicode="Q" horiz-adv-x="1531" d="M139 676q0 322 169 509t458 187t458 -187.5t169 -508.5q0 -301 -148.5 -485.5t-406.5 -206.5q10 -127 78.5 -172t181.5 -45q160 0 241 75l54 -151q-47 -41 -133 -65.5t-166 -24.5q-106 0 -189.5 32.5t-145 121.5t-69.5 229q-256 25 -403.5 209t-147.5 483zM311 676 q0 -254 122 -398.5t333 -144.5t333 144.5t122 398.5t-122 398.5t-333 144.5t-333 -144.5t-122 -398.5z" />
<glyph unicode="R" horiz-adv-x="1341" d="M221 0v1352h512q207 0 332 -106.5t125 -289.5q0 -272 -283 -342v-4q229 -39 240 -274q14 -252 63 -330v-6h-176q-37 84 -49 319q-12 242 -313 242h-287v-561h-164zM385 715h346q287 0 287 241.5t-287 241.5h-346v-483z" />
<glyph unicode="S" horiz-adv-x="1312" d="M88 279l143 116q131 -262 449 -262q160 0 250 57.5t90 165.5q0 152 -205 197l-317 72q-346 76 -346 346q0 168 138 284.5t365 116.5q348 0 523 -287l-138 -106q-74 129 -169 184.5t-232 55.5q-158 0 -236.5 -62.5t-78.5 -163.5q0 -78 49 -130t176 -81l293 -65 q186 -41 267 -126t81 -220q0 -174 -142.5 -282.5t-377.5 -108.5q-209 0 -354.5 81.5t-227.5 217.5z" />
<glyph unicode="T" horiz-adv-x="1236" d="M66 1198v154h1105v-154h-471v-1198h-163v1198h-471z" />
<glyph unicode="U" horiz-adv-x="1449" d="M195 504v848h163v-807q0 -213 89.5 -312.5t277.5 -99.5t277.5 99.5t89.5 312.5v807h163v-848q0 -260 -136 -392t-394 -132t-394 133t-136 391z" />
<glyph unicode="V" horiz-adv-x="1327" d="M57 1352h176l345 -934l86 -268l86 266l344 936h176l-512 -1352h-187z" />
<glyph unicode="W" horiz-adv-x="1968" d="M74 1352h170l334 -1202l317 1202h186l318 -1207l334 1207h161l-397 -1352h-203l-239 877l-70 305h-2l-70 -305l-237 -877h-203z" />
<glyph unicode="X" horiz-adv-x="1230" d="M51 0l473 688l-432 664h193l342 -527l346 527h178l-438 -656l452 -696h-188l-367 557l-368 -557h-191z" />
<glyph unicode="Y" horiz-adv-x="1171" d="M20 1352h195l371 -656l370 656h195l-483 -824v-528h-164v528z" />
<glyph unicode="Z" horiz-adv-x="1290" d="M115 0v145l841 1053h-821v154h1016v-146l-842 -1052h869v-154h-1063z" />
<glyph unicode="[" horiz-adv-x="712" d="M178 -344v1839h467v-143h-313v-1553h313v-143h-467z" />
<glyph unicode="\" horiz-adv-x="894" d="M57 1495h154l627 -1638h-154z" />
<glyph unicode="]" horiz-adv-x="712" d="M68 -201h313v1553h-313v143h467v-1839h-467v143z" />
<glyph unicode="^" horiz-adv-x="1146" d="M55 727l441 768h155l441 -768h-166l-353 629l-352 -629h-166z" />
<glyph unicode="_" horiz-adv-x="1103" d="M0 -199h1104v-153h-1104v153z" />
<glyph unicode="`" horiz-adv-x="1024" d="M346 1536h178l156 -342h-133z" />
<glyph unicode="a" horiz-adv-x="1159" d="M125 258q0 115 75.5 188.5t215.5 102.5l372 74v39q0 115 -61 177t-174 62q-223 0 -289 -194l-133 81q43 119 153.5 187.5t272.5 68.5q176 0 285.5 -89t109.5 -261v-495q0 -74 78 -74q39 0 76 10l-8 -129q-41 -20 -107 -20q-78 0 -132 37.5t-68 111.5 q-51 -76 -141.5 -115.5t-186.5 -39.5q-145 0 -241.5 72.5t-96.5 205.5zM293 266q0 -63 51 -103t141 -40q127 0 215 65.5t88 190.5v108l-296 -61q-104 -23 -151.5 -58.5t-47.5 -101.5z" />
<glyph unicode="b" horiz-adv-x="1284" d="M190 0v1495h164v-631q49 82 139 131t201 49q197 0 332 -144t135 -388q0 -242 -135 -387t-334 -145q-115 0 -208 54t-140 144l-10 -178h-144zM354 508q0 -176 88.5 -280.5t233.5 -104.5q152 0 236.5 105.5t84.5 283.5t-85 283.5t-234 105.5q-145 0 -234.5 -108.5 t-89.5 -284.5z" />
<glyph unicode="c" horiz-adv-x="1146" d="M119 512q0 246 137 389t358 143q301 0 424 -272l-155 -74q-66 203 -273 203q-154 0 -240.5 -103.5t-86.5 -285.5t87 -285.5t240 -103.5q240 0 287 211l152 -53q-53 -143 -164 -222t-271 -79q-221 0 -358 143t-137 389z" />
<glyph unicode="d" horiz-adv-x="1284" d="M123 512q0 246 141.5 389t341.5 143q109 0 195 -50t129 -136v637h164v-1495h-144l-10 193q-41 -100 -137 -156.5t-213 -56.5q-197 0 -332 144t-135 388zM287 512q0 -178 84.5 -283.5t234.5 -105.5q147 0 235.5 109.5t88.5 293.5q0 172 -87 273.5t-229 101.5 q-154 0 -240.5 -105.5t-86.5 -283.5z" />
<glyph unicode="e" horiz-adv-x="1181" d="M119 512q0 246 136 389t353 143q209 0 331 -130.5t122 -333.5q0 -57 -8 -115h-772q12 -162 100 -252t233 -90q205 0 297 160l129 -76q-127 -227 -422 -227q-223 0 -361 143t-138 389zM287 610h610q-4 137 -84 214t-209 77t-213 -76.5t-104 -214.5z" />
<glyph unicode="f" horiz-adv-x="804" d="M66 883v141h204v172q0 141 86 225t250 84q117 0 174 -47l-43 -133q-49 31 -116 31q-187 0 -187 -176v-156h342v-141h-342v-883h-164v883h-204z" />
<glyph unicode="g" horiz-adv-x="1290" d="M127 -123l162 47q41 -221 329 -221q152 0 234 92t82 248v150q-49 -86 -136 -139.5t-200 -53.5q-207 0 -339 140.5t-132 381.5q0 233 141.5 377.5t325.5 144.5q250 0 350 -182l12 162h144v-942q0 -522 -504 -522q-180 0 -310 80.5t-159 236.5zM291 522q0 -174 86 -276.5 t235.5 -102.5t235.5 98.5t86 281t-86 280.5t-236 98q-147 0 -234 -106.5t-87 -272.5z" />
<glyph unicode="h" horiz-adv-x="1267" d="M190 0v1495h164v-625q102 174 334 174q174 0 286.5 -100t112.5 -289v-655h-163v598q0 303 -252 303q-129 0 -223.5 -88t-94.5 -270v-543h-164z" />
<glyph unicode="i" horiz-adv-x="544" d="M150 1343.5q0 55.5 33.5 89t89 33.5t89 -33.5t33.5 -89t-33.5 -89t-89 -33.5t-89 33.5t-33.5 89zM190 0v1024h164v-1024h-164z" />
<glyph unicode="j" horiz-adv-x="544" d="M-162 -373l35 156q72 -63 168 -64q150 0 149 193v1112h164v-1128q0 -174 -93 -255t-218 -81q-123 0 -205 67zM150 1343.5q0 55.5 33.5 89t89 33.5t89 -33.5t33.5 -89t-33.5 -89t-89 -33.5t-89 33.5t-33.5 89z" />
<glyph unicode="k" horiz-adv-x="1161" d="M190 0v1495h164v-1001l529 530h207l-400 -399l424 -625h-199l-344 506l-217 -217v-289h-164z" />
<glyph unicode="l" horiz-adv-x="626" d="M182 254v1241h164v-1235q0 -76 27.5 -106.5t93.5 -30.5q63 0 139 29l-26 -144q-66 -28 -146 -28h-6q-246 0 -246 274z" />
<glyph unicode="m" horiz-adv-x="1951" d="M190 0v1024h144l10 -160q106 180 328 180q113 0 208 -51t144 -149q45 98 147.5 149t208.5 51q162 0 277 -99t115 -290v-655h-164v639q0 133 -66.5 197.5t-175.5 64.5q-127 0 -215 -91t-88 -249v-561h-164v639q0 133 -66.5 197.5t-175.5 64.5q-117 0 -210 -90t-93 -264 v-547h-164z" />
<glyph unicode="n" horiz-adv-x="1267" d="M190 0v1024h144l10 -160q100 180 344 180q174 0 286.5 -100t112.5 -289v-655h-163v598q0 303 -252 303q-129 0 -223.5 -88t-94.5 -268v-545h-164z" />
<glyph unicode="o" d="M119 512q0 246 137 389t358.5 143t358.5 -143t137 -389t-137 -389t-358.5 -143t-358.5 143t-137 389zM283 512q0 -182 88 -286.5t243.5 -104.5t243.5 104.5t88 286.5t-88 286.5t-243.5 104.5t-243.5 -104.5t-88 -286.5z" />
<glyph unicode="p" horiz-adv-x="1284" d="M190 -430v1454h144l10 -180q47 90 141 145t213 55q195 0 329 -145t134 -387t-136 -387t-333 -145q-111 0 -200 49t-138 131v-590h-164zM354 512q0 -176 88.5 -282.5t233.5 -106.5q150 0 235.5 105.5t85.5 283.5t-84 283.5t-231 105.5t-237.5 -106.5t-90.5 -282.5z" />
<glyph unicode="q" horiz-adv-x="1284" d="M123 512q0 246 141.5 389t341.5 143q111 0 202 -53t132 -143l10 176h144v-1454h-164v600q-45 -90 -137.5 -140t-202.5 -50q-197 0 -332 144t-135 388zM287 512q0 -178 84.5 -283.5t234.5 -105.5q145 0 234.5 107.5t89.5 287.5q0 182 -86 282.5t-234 100.5 q-152 0 -237.5 -105.5t-85.5 -283.5z" />
<glyph unicode="r" horiz-adv-x="835" d="M190 0v1024h134l22 -168q86 188 328 188q74 0 112 -20l-28 -150q-49 16 -125 17q-109 0 -194 -89t-85 -249v-553h-164z" />
<glyph unicode="s" horiz-adv-x="1079" d="M90 223l139 101q94 -201 342 -201q106 0 169 42t63 109q0 102 -133 132l-246 51q-279 57 -279 280q0 129 110 218t286 89q305 0 411 -227l-137 -90q-33 86 -108.5 130t-165.5 44q-109 0 -171.5 -44t-62.5 -114q0 -109 146 -137l256 -53q258 -53 258 -254 q0 -145 -113 -232t-295 -87q-152 0 -276.5 64.5t-192.5 178.5z" />
<glyph unicode="t" horiz-adv-x="858" d="M63 883v141h205v246l164 45v-291h373v-141h-373v-600q0 -74 42 -112t112 -38q104 0 180 76l57 -137q-102 -92 -260 -92q-129 0 -211 66.5t-84 207.5v629h-205z" />
<glyph unicode="u" horiz-adv-x="1263" d="M180 352v672h164v-629q0 -150 64.5 -211t193.5 -61q127 0 217 87t90 257v557h164v-1024h-143l-10 156q-103 -176 -359 -176q-164 0 -272.5 92t-108.5 280z" />
<glyph unicode="v" horiz-adv-x="1064" d="M25 1024h186l324 -858l333 858h172l-426 -1024h-163z" />
<glyph unicode="w" horiz-adv-x="1712" d="M55 1024h183l258 -834l278 834h164l279 -834l258 834h182l-357 -1024h-163l-289 815l-273 -815h-163z" />
<glyph unicode="x" horiz-adv-x="1091" d="M59 0l394 516l-369 508h205l270 -379l266 379h193l-371 -502l377 -522h-201l-282 395l-291 -395h-191z" />
<glyph unicode="y" horiz-adv-x="1056" d="M2 -369l45 144q78 -72 178 -72q59 0 105.5 36t81.5 130l53 133l-428 1022h186l256 -668l64 -182l73 203l240 647h176l-481 -1196q-59 -147 -133 -207.5t-185 -60.5q-137 0 -231 71z" />
<glyph unicode="z" horiz-adv-x="1093" d="M117 0v125l536 629l129 133l-182 -4h-477v141h842v-125l-537 -629l-127 -133l199 4h481v-141h-864z" />
<glyph unicode="{" horiz-adv-x="718" d="M57 504v143q125 0 177.5 49t52.5 164v424q0 254 336 254v-133q-98 0 -140.5 -25.5t-42.5 -83.5v-450q0 -219 -233 -271q233 -51 233 -270v-450q0 -57 42 -83t141 -26v-133q-336 0 -336 254v424q0 115 -52.5 164t-177.5 49z" />
<glyph unicode="|" horiz-adv-x="497" d="M178 -344v1839h141v-1839h-141z" />
<glyph unicode="}" horiz-adv-x="718" d="M96 -254q98 0 140.5 25.5t42.5 83.5v450q0 219 233 270q-233 51 -233 271v450q0 57 -42 83t-141 26v133q336 0 336 -254v-424q0 -115 52.5 -164t177.5 -49v-143q-125 0 -177.5 -49t-52.5 -164v-424q0 -254 -336 -254v133z" />
<glyph unicode="~" horiz-adv-x="1105" d="M88 481q25 305 268 305q78 0 146.5 -37.5t125 -75.5t107.5 -38q100 0 127 151h156q-25 -305 -266 -305q-80 0 -147.5 38t-125 76t-108.5 38q-100 0 -127 -152h-156z" />
<glyph unicode="&#xa1;" horiz-adv-x="540" d="M137 911.5q0 59.5 37 96t96.5 36.5t96 -36.5t36.5 -96t-36.5 -96.5t-96 -37t-96.5 37t-37 96.5zM184 258l25 340h123l24 -340v-586h-172v586z" />
<glyph unicode="&#xa2;" d="M135 512q0 221 115 360.5t303 165.5v191h137v-187q260 -25 365 -270l-156 -74q-57 178 -209 207v-788q174 27 228 217l147 -51q-94 -272 -375 -301v-187h-137v191q-188 27 -303 166t-115 360zM289 512q0 -160 71.5 -263.5t192.5 -127.5v782q-121 -25 -192.5 -128 t-71.5 -263z" />
<glyph unicode="&#xa3;" d="M76 156q0 76 62.5 129t168.5 53q102 0 193 -45v31q0 117 -70 245h-287v133h211q-88 158 -88 283q0 162 119 274.5t299 112.5q307 0 393 -319l-141 -78q-29 123 -89.5 185.5t-170.5 62.5q-119 0 -186.5 -64.5t-67.5 -169.5q0 -111 88 -287h399v-133h-338q51 -137 50 -256 q0 -47 -13 -92q55 -41 77 -56t70 -34.5t93 -19.5q82 0 119 46.5t39 155.5h133q0 -164 -70 -248.5t-199 -84.5q-57 0 -118.5 20t-97.5 41.5t-97 62.5q-86 -125 -264 -124q-100 0 -158.5 49t-58.5 127zM223 156q0 -66 90 -66q111 0 154 74q-86 51 -158 51q-86 0 -86 -59z" />
<glyph unicode="&#xa4;" d="M76 240l180 184q-74 106 -74 250q0 141 76 254l-182 178l104 104l182 -180q109 74 252 74q147 0 254 -76l179 182l104 -104l-178 -182q71 -111 71 -250q0 -143 -75 -256l182 -178l-104 -105l-185 178q-109 -72 -248 -71q-143 0 -256 77l-178 -184zM346 674 q0 -125 75.5 -205t192.5 -80q115 0 191 80t76 205q0 123 -76 202.5t-191 79.5q-117 0 -192.5 -79.5t-75.5 -202.5z" />
<glyph unicode="&#xa5;" d="M49 1352h191l274 -498l98 -203h4l99 205l274 496h191l-451 -744h352v-123h-395v-153h395v-113h-395v-219h-143v219h-393v113h393v153h-393v123h348z" />
<glyph unicode="&#xa6;" horiz-adv-x="497" d="M178 -344v743h141v-743h-141zM178 752v743h141v-743h-141z" />
<glyph unicode="&#xa7;" horiz-adv-x="1224" d="M63 604q0 88 57.5 153.5t155.5 88.5q-80 74 -79 196q0 145 119.5 237.5t316.5 92.5q293 0 434 -203l-127 -98q-106 160 -313 160q-129 0 -203 -49t-74 -127q0 -68 38 -108t142 -56l289 -49q193 -33 268.5 -103.5t75.5 -181.5q0 -195 -205 -256q74 -74 74 -186 q0 -150 -123 -245t-327 -95q-328 0 -463 209l127 104q96 -176 346 -176q135 0 212 51t77 139q0 111 -148 140l-346 67q-324 61 -324 295zM217 633q0 -143 217 -182l322 -58q71 -15 112 -33q139 39 140 158q0 68 -46.5 113t-166.5 65l-295 52q-82 14 -142 43 q-141 -49 -141 -158z" />
<glyph unicode="&#xa8;" horiz-adv-x="1024" d="M197 1308.5q0 51.5 32.5 84t84 32.5t84 -32.5t32.5 -84t-32.5 -84t-84 -32.5t-84 32.5t-32.5 84zM594 1308.5q0 51.5 32.5 84t84 32.5t84 -32.5t32.5 -84t-32.5 -84t-84 -32.5t-84 32.5t-32.5 84z" />
<glyph unicode="&#xa9;" horiz-adv-x="1679" d="M139 676q0 299 195.5 497.5t505 198.5t505 -198.5t195.5 -497.5t-195.5 -497.5t-505 -198.5t-505 198.5t-195.5 497.5zM285 675.5q0 -239.5 155.5 -401t399 -161.5t399.5 161.5t156 401t-156 401.5t-399.5 162t-399 -162t-155.5 -401.5zM481 672q0 176 99.5 277.5 t273.5 101.5q233 0 320 -195l-119 -59q-51 131 -203 131q-109 0 -171.5 -67.5t-62.5 -188.5t62.5 -188.5t171.5 -67.5q166 0 217 137l113 -45q-82 -215 -328 -215q-174 0 -273.5 101.5t-99.5 277.5z" />
<glyph unicode="&#xaa;" horiz-adv-x="782" d="M53 412v108h656v-108h-656zM55 852q0 82 51.5 128t174.5 69l215 38v29q0 61 -38 98t-100 37q-143 0 -202 -131l-101 60q29 82 107 132t190 50q133 0 208 -61.5t75 -180.5v-286q0 -64 63 -64q33 0 50 8l-11 -90q-41 -18 -80 -18q-123 0 -139 118q-78 -119 -233 -118 q-104 0 -167 50t-63 132zM199 862q-1 -82 108 -82q76 0 132.5 37t56.5 125v53l-170 -34q-74 -14 -100.5 -36t-26.5 -63z" />
<glyph unicode="&#xab;" horiz-adv-x="1009" d="M104 543l258 401h179l-262 -401l262 -402h-179zM467 543l258 401h178l-262 -401l262 -402h-178z" />
<glyph unicode="&#xac;" horiz-adv-x="1236" d="M121 571v154h995v-457h-164v303h-831z" />
<glyph unicode="&#xad;" horiz-adv-x="1044" d="M184 451v170h676v-170h-676z" />
<glyph unicode="&#xae;" horiz-adv-x="1679" d="M139 676q0 299 195.5 497.5t505 198.5t505 -197.5t195.5 -498.5q0 -299 -195.5 -497.5t-505 -198.5t-505 198.5t-195.5 497.5zM285 675.5q0 -239.5 155.5 -401t399 -161.5t399.5 161.5t156 401t-156 401.5t-399.5 162t-399 -162t-155.5 -401.5zM551 293v758h311 q129 0 208 -65.5t79 -176.5q0 -86 -49 -146.5t-135 -82.5l200 -287h-155l-183 274h-139v-274h-137zM688 672h172q152 0 152 137t-152 137h-172v-274z" />
<glyph unicode="&#xaf;" horiz-adv-x="1024" d="M176 1221v137h672v-137h-672z" />
<glyph unicode="&#xb0;" horiz-adv-x="942" d="M123 1034.5q0 147.5 98 242.5t250 95t250 -95t98 -242.5t-98 -243t-250 -95.5t-250 95.5t-98 243zM266 1034q0 -88 57.5 -146.5t147.5 -58.5t147.5 58.5t57.5 146.5t-57.5 146.5t-147.5 58.5t-147.5 -58.5t-57.5 -146.5z" />
<glyph unicode="&#xb1;" horiz-adv-x="1236" d="M121 0v154h995v-154h-995zM121 735v154h422v422h153v-422h420v-154h-420v-420h-153v420h-422z" />
<glyph unicode="&#xb2;" horiz-adv-x="747" d="M57 1241q8 123 92 193.5t220 70.5q143 0 222 -75.5t79 -184.5q0 -174 -297 -379q-16 -12 -107 -71v-2q74 6 131 6h291v-117h-608v98q133 94 188 138q147 117 199.5 183t52.5 136q0 66 -41 107.5t-117 41.5q-80 0 -126 -50t-50 -140z" />
<glyph unicode="&#xb3;" horiz-adv-x="741" d="M49 866l137 62q25 -139 176 -140q72 0 116 36t44 98q0 115 -174 114q-23 0 -35 -2v107q10 -2 29 -2q160 -4 160 123q0 125 -140 124q-131 0 -155 -122l-133 47q25 96 104.5 145t192.5 49q133 0 207.5 -60.5t74.5 -160.5q0 -86 -51 -137t-110 -55v-2q70 -2 125 -52.5 t55 -136.5q0 -104 -86 -167.5t-221 -63.5q-252 0 -316 196z" />
<glyph unicode="&#xb4;" d="M449 1194l155 342h178l-200 -342h-133z" />
<glyph unicode="&#xb5;" horiz-adv-x="1273" d="M190 -430v1454h164v-627q0 -274 258 -274q133 0 220.5 88t87.5 274v539h163v-1024h-133l-14 166q-106 -186 -332 -186q-172 0 -250 104v-514h-164z" />
<glyph unicode="&#xb6;" horiz-adv-x="1304" d="M84 922q0 201 135 315.5t385 114.5h514v-1557h-143v1419h-264v-1419h-150v699q-221 2 -349 117.5t-128 310.5z" />
<glyph unicode="&#xb7;" horiz-adv-x="462" d="M98 727q0 59 37 96t96.5 37t96.5 -37t37 -96t-37 -96t-96.5 -37t-96.5 37t-37 96z" />
<glyph unicode="&#xb8;" horiz-adv-x="1024" d="M291 -381l39 119q70 -47 137 -47q59 0 95 36.5t36 106.5q0 53 -39 92t-135 82l86 51q223 -72 223 -262q0 -100 -70.5 -168.5t-177.5 -68.5q-115 0 -194 59z" />
<glyph unicode="&#xb9;" horiz-adv-x="495" d="M20 1225v123q59 12 134 56t106 91h127v-813h-143v514q0 41 4 147q-104 -98 -228 -118z" />
<glyph unicode="&#xba;" horiz-adv-x="737" d="M47 1016q0 160 88 253t233.5 93t233.5 -93t88 -253t-88 -253t-233.5 -93t-233.5 93t-88 253zM74 412v108h590v-108h-590zM190 1016q0 -234 178.5 -234t178.5 234q0 236 -178.5 235.5t-178.5 -235.5z" />
<glyph unicode="&#xbb;" horiz-adv-x="1009" d="M106 141l263 402l-263 401h179l258 -401l-258 -402h-179zM469 141l262 402l-262 401h178l258 -401l-258 -402h-178z" />
<glyph unicode="&#xbc;" horiz-adv-x="1613" d="M20 1092v122q59 12 134 56.5t106 91.5h127v-813h-143v514q0 41 4 147q-104 -98 -228 -118zM180 0l977 1352h162l-977 -1352h-162zM899 195v75l373 535h155v-508h146v-102h-146v-203h-120v203h-408zM1038 297h269v233q0 80 6 156h-6q-37 -68 -66 -111z" />
<glyph unicode="&#xbd;" horiz-adv-x="1751" d="M20 1092v122q59 12 134 56.5t106 91.5h127v-813h-143v514q0 41 4 147q-104 -98 -228 -118zM180 0l977 1352h162l-977 -1352h-162zM1061 551q8 123 92 193.5t219 70.5q143 0 222 -75.5t79 -184.5q0 -174 -297 -379q-18 -12 -106 -72v-2q74 6 131 7h291v-117h-609v98 q133 94 189 137q147 117 199.5 183.5t52.5 136.5q0 68 -41 108.5t-117 40.5q-80 0 -126 -50t-50 -140z" />
<glyph unicode="&#xbe;" horiz-adv-x="1859" d="M49 733l137 62q25 -139 176 -140q72 0 116 36t44 97q0 115 -174 115q-23 0 -35 -2v107q10 -2 29 -2q160 -4 160 122q0 125 -140 125q-131 0 -155 -123l-133 48q25 96 104.5 145t192.5 49q133 0 207.5 -60.5t74.5 -160.5q0 -86 -51 -137t-110 -56v-2q70 -2 125 -52 t55 -136q0 -104 -86 -167.5t-221 -63.5q-252 0 -316 196zM426 0l977 1352h162l-977 -1352h-162zM1145 195v75l373 535h155v-508h146v-102h-146v-203h-121v203h-407zM1284 297h268v233q0 80 7 156h-7q-37 -68 -65 -111z" />
<glyph unicode="&#xbf;" horiz-adv-x="1099" d="M96 0q0 170 106.5 265t278.5 114v219h170v-307q-207 -31 -295 -92.5t-88 -178.5q0 -100 74 -157.5t215 -57.5q135 0 220 75t102 204l145 -84q-35 -160 -162 -254t-317 -94q-199 0 -324 94t-125 254zM436 911.5q0 59.5 37 96t96.5 36.5t96 -36.5t36.5 -96t-36.5 -96.5 t-96 -37t-96.5 37t-37 96.5z" />
<glyph unicode="&#xc0;" horiz-adv-x="1351" d="M53 0l527 1352h194l524 -1352h-174l-143 375h-612l-144 -375h-172zM428 528h494l-183 480l-63 188h-4l-60 -182zM446 1847h172l136 -325h-131z" />
<glyph unicode="&#xc1;" horiz-adv-x="1351" d="M53 0l527 1352h194l524 -1352h-174l-143 375h-612l-144 -375h-172zM428 528h494l-183 480l-63 188h-4l-60 -182zM588 1522l135 325h172l-176 -325h-131z" />
<glyph unicode="&#xc2;" horiz-adv-x="1351" d="M53 0l527 1352h194l524 -1352h-174l-143 375h-612l-144 -375h-172zM360 1522l226 325h180l225 -325h-151l-164 219l-164 -219h-152zM428 528h494l-183 480l-63 188h-4l-60 -182z" />
<glyph unicode="&#xc3;" horiz-adv-x="1351" d="M53 0l527 1352h194l524 -1352h-174l-143 375h-612l-144 -375h-172zM303 1520q23 274 232 274q63 0 115 -35t91 -69.5t72 -34.5q80 0 102 141h129q-23 -274 -229 -274q-66 0 -118 34.5t-91 69.5t-74 35q-78 0 -100 -141h-129zM428 528h494l-183 480l-63 188h-4l-60 -182z " />
<glyph unicode="&#xc4;" horiz-adv-x="1351" d="M53 0l527 1352h194l524 -1352h-174l-143 375h-612l-144 -375h-172zM360 1636.5q0 51.5 33 84t84 32.5t84 -32.5t33 -84t-33 -84t-84 -32.5t-84 32.5t-33 84zM428 528h494l-183 480l-63 188h-4l-60 -182zM758 1636.5q0 51.5 32.5 84t84 32.5t84 -32.5t32.5 -84t-32.5 -84 t-84 -32.5t-84 32.5t-32.5 84z" />
<glyph unicode="&#xc5;" horiz-adv-x="1351" d="M53 0l496 1274q-135 63 -135 219q0 109 71.5 175.5t186 66.5t185.5 -66.5t71 -175.5q0 -154 -125 -215l495 -1278h-174l-143 375h-612l-144 -375h-172zM428 528h494l-183 480l-63 188h-4l-60 -182zM526 1493q0 -61 41 -101t104.5 -40t104.5 40t41 101t-41 101t-104.5 40 t-104.5 -40t-41 -101z" />
<glyph unicode="&#xc6;" horiz-adv-x="1953" d="M12 0l791 1352h1014v-154h-730v-436h555v-154h-555v-454h760v-154h-923v436h-484l-252 -436h-176zM530 590h394v608h-41z" />
<glyph unicode="&#xc7;" horiz-adv-x="1404" d="M139 676q0 319 169 507.5t454 188.5q391 0 524 -315l-162 -76q-90 238 -350 238q-211 0 -337 -144.5t-126 -398.5t122 -398.5t333 -144.5q137 0 237.5 69.5t143.5 205.5l164 -62q-55 -147 -169 -240.5t-270 -117.5q86 -72 86 -191q0 -100 -70.5 -168.5t-176.5 -68.5 q-115 0 -195 59l39 119q72 -47 137 -47q59 0 95 36.5t36 106.5q0 86 -118 148q-264 23 -415 207t-151 487z" />
<glyph unicode="&#xc8;" horiz-adv-x="1306" d="M221 0v1352h948v-154h-784v-436h610v-154h-610v-454h815v-154h-979zM477 1847h172l135 -325h-131z" />
<glyph unicode="&#xc9;" horiz-adv-x="1306" d="M221 0v1352h948v-154h-784v-436h610v-154h-610v-454h815v-154h-979zM608 1522l135 325h172l-176 -325h-131z" />
<glyph unicode="&#xca;" horiz-adv-x="1306" d="M221 0v1352h948v-154h-784v-436h610v-154h-610v-454h815v-154h-979zM381 1522l225 325h180l226 -325h-152l-164 219l-164 -219h-151z" />
<glyph unicode="&#xcb;" horiz-adv-x="1306" d="M221 0v1352h948v-154h-784v-436h610v-154h-610v-454h815v-154h-979zM381 1636.5q0 51.5 32.5 84t84 32.5t84 -32.5t32.5 -84t-32.5 -84t-84 -32.5t-84 32.5t-32.5 84zM778 1636.5q0 51.5 33 84t84 32.5t84 -32.5t33 -84t-33 -84t-84 -32.5t-84 32.5t-33 84z" />
<glyph unicode="&#xcc;" horiz-adv-x="606" d="M63 1847h173l135 -325h-131zM221 0v1352h164v-1352h-164z" />
<glyph unicode="&#xcd;" horiz-adv-x="606" d="M221 0v1352h164v-1352h-164zM236 1522l135 325h172l-176 -325h-131z" />
<glyph unicode="&#xce;" horiz-adv-x="606" d="M-12 1522l225 325h180l225 -325h-151l-164 219l-164 -219h-151zM221 0v1352h164v-1352h-164z" />
<glyph unicode="&#xcf;" horiz-adv-x="606" d="M-12 1636.5q0 51.5 32.5 84t84 32.5t84 -32.5t32.5 -84t-32.5 -84t-84 -32.5t-84 32.5t-32.5 84zM0 0zM221 0v1352h164v-1352h-164zM385 1636.5q0 51.5 32.5 84t84 32.5t84 -32.5t32.5 -84t-32.5 -84t-84 -32.5t-84 32.5t-32.5 84z" />
<glyph unicode="&#xd0;" horiz-adv-x="1509" d="M53 606v154h201v592h436q319 0 499.5 -176.5t180.5 -500t-180 -499.5t-500 -176h-436v606h-201zM418 154h289q231 0 361 138t130 384t-130 384t-361 138h-289v-438h403v-154h-403v-452z" />
<glyph unicode="&#xd1;" horiz-adv-x="1503" d="M221 0v1352h203l563 -901l146 -261h2l-9 207v955h156v-1352h-203l-565 905l-143 254h-2l8 -205v-954h-156zM387 1520q23 274 231 274q63 0 115.5 -35t91.5 -69.5t72 -34.5q80 0 102 141h129q-23 -274 -229 -274q-66 0 -118 34.5t-91 69.5t-74 35q-78 0 -100 -141h-129z " />
<glyph unicode="&#xd2;" horiz-adv-x="1531" d="M139 675.5q0 321.5 169 509t458 187.5t458 -187.5t169 -509t-169 -508.5t-458 -187t-458 187t-169 508.5zM311 676q0 -254 122 -398.5t333 -144.5t333 144.5t122 398.5t-122 398.5t-333 144.5t-333 -144.5t-122 -398.5zM526 1847h172l136 -325h-132z" />
<glyph unicode="&#xd3;" horiz-adv-x="1531" d="M139 675.5q0 321.5 169 509t458 187.5t458 -187.5t169 -509t-169 -508.5t-458 -187t-458 187t-169 508.5zM311 676q0 -254 122 -398.5t333 -144.5t333 144.5t122 398.5t-122 398.5t-333 144.5t-333 -144.5t-122 -398.5zM678 1522l135 325h172l-176 -325h-131z" />
<glyph unicode="&#xd4;" horiz-adv-x="1531" d="M139 675.5q0 321.5 169 509t458 187.5t458 -187.5t169 -509t-169 -508.5t-458 -187t-458 187t-169 508.5zM311 676q0 -254 122 -398.5t333 -144.5t333 144.5t122 398.5t-122 398.5t-333 144.5t-333 -144.5t-122 -398.5zM451 1522l225 325h180l225 -325h-151l-164 219 l-164 -219h-151z" />
<glyph unicode="&#xd5;" horiz-adv-x="1531" d="M139 675.5q0 321.5 169 509t458 187.5t458 -187.5t169 -509t-169 -508.5t-458 -187t-458 187t-169 508.5zM311 676q0 -254 122 -398.5t333 -144.5t333 144.5t122 398.5t-122 398.5t-333 144.5t-333 -144.5t-122 -398.5zM393 1520q23 274 232 274q63 0 115.5 -35t91 -69.5 t71.5 -34.5q80 0 103 141h129q-23 -274 -230 -274q-66 0 -118 34.5t-91 69.5t-73 35q-78 0 -101 -141h-129z" />
<glyph unicode="&#xd6;" horiz-adv-x="1531" d="M139 675.5q0 321.5 169 509t458 187.5t458 -187.5t169 -509t-169 -508.5t-458 -187t-458 187t-169 508.5zM311 676q0 -254 122 -398.5t333 -144.5t333 144.5t122 398.5t-122 398.5t-333 144.5t-333 -144.5t-122 -398.5zM451 1636.5q0 51.5 32.5 84t83.5 32.5t84 -32.5 t33 -84t-33 -84t-84 -32.5t-83.5 32.5t-32.5 84zM848 1636.5q0 51.5 32.5 84t84 32.5t84 -32.5t32.5 -84t-32.5 -84t-84 -32.5t-84 32.5t-32.5 84z" />
<glyph unicode="&#xd7;" horiz-adv-x="1236" d="M166 307l344 344l-344 342l108 109l344 -342l343 342l108 -109l-342 -342l342 -344l-108 -108l-343 344l-344 -344z" />
<glyph unicode="&#xd8;" horiz-adv-x="1531" d="M139 676q0 322 169 509t458 187q205 0 354 -98l88 125h146l-142 -203q180 -190 181 -520q0 -322 -169 -509t-458 -187q-195 0 -340 88l-100 -144h-146l152 219q-193 188 -193 533zM311 676q0 -252 117 -393l600 858q-109 78 -262 78q-211 0 -333 -144.5t-122 -398.5z M518 201q105 -68 248 -68q211 0 333 144.5t122 398.5q0 238 -107 379z" />
<glyph unicode="&#xd9;" horiz-adv-x="1449" d="M195 504v848h163v-807q0 -213 89.5 -312.5t277.5 -99.5t277.5 99.5t89.5 312.5v807h163v-848q0 -260 -136 -392t-394 -132t-394 133t-136 391zM506 1796h172l135 -326h-131z" />
<glyph unicode="&#xda;" horiz-adv-x="1449" d="M195 504v848h163v-807q0 -213 89.5 -312.5t277.5 -99.5t277.5 99.5t89.5 312.5v807h163v-848q0 -260 -136 -392t-394 -132t-394 133t-136 391zM637 1470l135 326h172l-176 -326h-131z" />
<glyph unicode="&#xdb;" horiz-adv-x="1449" d="M195 504v848h163v-807q0 -213 89.5 -312.5t277.5 -99.5t277.5 99.5t89.5 312.5v807h163v-848q0 -260 -136 -392t-394 -132t-394 133t-136 391zM410 1470l225 326h180l225 -326h-151l-164 220l-164 -220h-151z" />
<glyph unicode="&#xdc;" horiz-adv-x="1449" d="M195 504v848h163v-807q0 -213 89.5 -312.5t277.5 -99.5t277.5 99.5t89.5 312.5v807h163v-848q0 -260 -136 -392t-394 -132t-394 133t-136 391zM410 1585q0 53 32.5 85t84 32t84 -32t32.5 -85t-32.5 -85t-84 -32t-84 32t-32.5 85zM807 1585q0 53 32.5 85t84 32t84 -32 t32.5 -85t-32.5 -85t-84 -32t-84 32t-32.5 85z" />
<glyph unicode="&#xdd;" horiz-adv-x="1171" d="M20 1352h195l371 -656l370 656h195l-483 -824v-528h-164v528zM498 1481l135 325h172l-176 -325h-131z" />
<glyph unicode="&#xde;" horiz-adv-x="1284" d="M221 0v1352h164v-242h285q250 0 377 -107.5t127 -312.5q0 -203 -127 -311.5t-377 -108.5h-285v-270h-164zM385 424h301q315 0 315 266t-315 266h-301v-532z" />
<glyph unicode="&#xdf;" horiz-adv-x="1263" d="M190 0v1018q0 487 482 487q203 0 312.5 -104.5t109.5 -249.5q0 -133 -81 -238.5t-229 -115.5v-4q184 0 273.5 -111t89.5 -264q0 -190 -103.5 -314t-300.5 -124q-178 0 -264 67l47 139q92 -57 213 -57q115 0 182.5 82t67.5 211q0 293 -315 293h-121v145h100q127 0 200 73 t73 185q0 117 -74 175.5t-197 58.5q-166 0 -233.5 -93.5t-67.5 -289.5v-969h-164z" />
<glyph unicode="&#xe0;" horiz-adv-x="1159" d="M125 258q0 115 75.5 188.5t215.5 102.5l372 74v39q0 115 -61 177t-174 62q-223 0 -289 -194l-133 81q43 119 153.5 187.5t272.5 68.5q176 0 285.5 -89t109.5 -261v-495q0 -74 78 -74q39 0 76 10l-8 -129q-41 -20 -107 -20q-78 0 -132 37.5t-68 111.5 q-51 -76 -141.5 -115.5t-186.5 -39.5q-145 0 -241.5 72.5t-96.5 205.5zM293 266q0 -63 51 -103t141 -40q127 0 215 65.5t88 190.5v108l-296 -61q-104 -23 -151.5 -58.5t-47.5 -101.5zM317 1536h179l155 -342h-133z" />
<glyph unicode="&#xe1;" horiz-adv-x="1159" d="M125 258q0 115 75.5 188.5t215.5 102.5l372 74v39q0 115 -61 177t-174 62q-223 0 -289 -194l-133 81q43 119 153.5 187.5t272.5 68.5q176 0 285.5 -89t109.5 -261v-495q0 -74 78 -74q39 0 76 10l-8 -129q-41 -20 -107 -20q-78 0 -132 37.5t-68 111.5 q-51 -76 -141.5 -115.5t-186.5 -39.5q-145 0 -241.5 72.5t-96.5 205.5zM293 266q0 -63 51 -103t141 -40q127 0 215 65.5t88 190.5v108l-296 -61q-104 -23 -151.5 -58.5t-47.5 -101.5zM465 1194l156 342h178l-201 -342h-133z" />
<glyph unicode="&#xe2;" horiz-adv-x="1159" d="M125 258q0 115 75.5 188.5t215.5 102.5l372 74v39q0 115 -61 177t-174 62q-223 0 -289 -194l-133 81q43 119 153.5 187.5t272.5 68.5q176 0 285.5 -89t109.5 -261v-495q0 -74 78 -74q39 0 76 10l-8 -129q-41 -20 -107 -20q-78 0 -132 37.5t-68 111.5 q-51 -76 -141.5 -115.5t-186.5 -39.5q-145 0 -241.5 72.5t-96.5 205.5zM240 1180l233 342h184l234 -342h-150l-176 235l-176 -235h-149zM293 266q0 -63 51 -103t141 -40q127 0 215 65.5t88 190.5v108l-296 -61q-104 -23 -151.5 -58.5t-47.5 -101.5z" />
<glyph unicode="&#xe3;" horiz-adv-x="1159" d="M125 258q0 115 75.5 188.5t215.5 102.5l372 74v39q0 115 -61 177t-174 62q-223 0 -289 -194l-133 81q43 119 153.5 187.5t272.5 68.5q176 0 285.5 -89t109.5 -261v-495q0 -74 78 -74q39 0 76 10l-8 -129q-41 -20 -107 -20q-78 0 -132 37.5t-68 111.5 q-51 -76 -141.5 -115.5t-186.5 -39.5q-145 0 -241.5 72.5t-96.5 205.5zM193 1192q23 274 231 274q63 0 115.5 -34.5t91.5 -69.5t71 -35q80 0 103 141h129q-23 -274 -229 -274q-66 0 -118 35t-91 69.5t-74 34.5q-78 0 -100 -141h-129zM293 266q0 -63 51 -103t141 -40 q127 0 215 65.5t88 190.5v108l-296 -61q-104 -23 -151.5 -58.5t-47.5 -101.5z" />
<glyph unicode="&#xe4;" horiz-adv-x="1159" d="M125 258q0 115 75.5 188.5t215.5 102.5l372 74v39q0 115 -61 177t-174 62q-223 0 -289 -194l-133 81q43 119 153.5 187.5t272.5 68.5q176 0 285.5 -89t109.5 -261v-495q0 -74 78 -74q39 0 76 10l-8 -129q-41 -20 -107 -20q-78 0 -132 37.5t-68 111.5 q-51 -76 -141.5 -115.5t-186.5 -39.5q-145 0 -241.5 72.5t-96.5 205.5zM250 1308.5q0 51.5 32.5 84t84 32.5t84 -32.5t32.5 -84t-32.5 -84t-84 -32.5t-84 32.5t-32.5 84zM293 266q0 -63 51 -103t141 -40q127 0 215 65.5t88 190.5v108l-296 -61q-104 -23 -151.5 -58.5 t-47.5 -101.5zM647 1308.5q0 51.5 33 84t84 32.5t84 -32.5t33 -84t-33 -84t-84 -32.5t-84 32.5t-33 84z" />
<glyph unicode="&#xe5;" horiz-adv-x="1159" d="M125 258q0 115 75.5 188.5t215.5 102.5l372 74v39q0 115 -61 177t-174 62q-223 0 -289 -194l-133 81q43 119 153.5 187.5t272.5 68.5q176 0 285.5 -89t109.5 -261v-495q0 -74 78 -74q39 0 76 10l-8 -129q-41 -20 -107 -20q-78 0 -132 37.5t-68 111.5 q-51 -76 -141.5 -115.5t-186.5 -39.5q-145 0 -241.5 72.5t-96.5 205.5zM293 266q0 -63 51 -103t141 -40q127 0 215 65.5t88 190.5v108l-296 -61q-104 -23 -151.5 -58.5t-47.5 -101.5zM301 1421.5q0 108.5 71.5 175t186.5 66.5t185.5 -66.5t70.5 -175t-70.5 -176 t-185.5 -67.5t-186.5 67.5t-71.5 176zM414 1421.5q0 -61.5 41 -101.5t104.5 -40t104.5 40t41 101.5t-41 101.5t-104.5 40t-104.5 -40t-41 -101.5z" />
<glyph unicode="&#xe6;" horiz-adv-x="1832" d="M125 258q0 115 73.5 188.5t209.5 100.5l380 76v39q0 113 -65.5 176t-171.5 63q-211 0 -287 -194l-133 81q49 119 157.5 187.5t258.5 68.5q262 0 352 -184q129 184 375 184q201 0 319.5 -131.5t118.5 -332.5q0 -57 -8 -115h-750q10 -160 99.5 -251t226.5 -91 q190 0 283 160l129 -76q-59 -106 -166 -166.5t-242 -60.5q-285 0 -410 223q-45 -102 -158.5 -162.5t-244.5 -60.5q-152 0 -249 72.5t-97 205.5zM293 266q0 -63 51 -103t141 -40q127 0 215 65.5t88 190.5v106l-296 -59q-102 -20 -150.5 -57t-48.5 -103zM961 610h587 q-4 137 -80.5 214t-197.5 77q-125 0 -207 -77t-102 -214z" />
<glyph unicode="&#xe7;" horiz-adv-x="1146" d="M119 512q0 246 137 389t358 143q301 0 424 -272l-155 -74q-66 203 -273 203q-154 0 -240.5 -103.5t-86.5 -285.5t87 -285.5t240 -103.5q240 0 287 211l152 -53q-90 -246 -328 -291q88 -74 88 -193q0 -100 -70.5 -168.5t-177.5 -68.5q-115 0 -194 59l39 119 q70 -47 137 -47q59 0 95 36.5t36 106.5q0 47 -28 81t-93 69q-197 20 -315.5 160.5t-118.5 367.5z" />
<glyph unicode="&#xe8;" horiz-adv-x="1181" d="M119 512q0 246 136 389t353 143q209 0 331 -130.5t122 -333.5q0 -57 -8 -115h-772q12 -162 100 -252t233 -90q205 0 297 160l129 -76q-127 -227 -422 -227q-223 0 -361 143t-138 389zM287 610h610q-4 137 -84 214t-209 77t-213 -76.5t-104 -214.5zM348 1536h178l156 -342 h-133z" />
<glyph unicode="&#xe9;" horiz-adv-x="1181" d="M119 512q0 246 136 389t353 143q209 0 331 -130.5t122 -333.5q0 -57 -8 -115h-772q12 -162 100 -252t233 -90q205 0 297 160l129 -76q-127 -227 -422 -227q-223 0 -361 143t-138 389zM287 610h610q-4 137 -84 214t-209 77t-213 -76.5t-104 -214.5zM496 1194l155 342h178 l-200 -342h-133z" />
<glyph unicode="&#xea;" horiz-adv-x="1181" d="M119 512q0 246 136 389t353 143q209 0 331 -130.5t122 -333.5q0 -57 -8 -115h-772q12 -162 100 -252t233 -90q205 0 297 160l129 -76q-127 -227 -422 -227q-223 0 -361 143t-138 389zM270 1180l234 342h184l234 -342h-150l-176 235l-176 -235h-150zM287 610h610 q-4 137 -84 214t-209 77t-213 -76.5t-104 -214.5z" />
<glyph unicode="&#xeb;" horiz-adv-x="1181" d="M119 512q0 246 136 389t353 143q209 0 331 -130.5t122 -333.5q0 -57 -8 -115h-772q12 -162 100 -252t233 -90q205 0 297 160l129 -76q-127 -227 -422 -227q-223 0 -361 143t-138 389zM281 1308.5q0 51.5 31.5 84t85 32.5t85 -32.5t31.5 -84t-31.5 -84t-85 -32.5t-85 32.5 t-31.5 84zM287 610h610q-4 137 -84 214t-209 77t-213 -76.5t-104 -214.5zM678 1308.5q0 51.5 31.5 84t85 32.5t85 -32.5t31.5 -84t-31.5 -84t-85 -32.5t-85 32.5t-31.5 84z" />
<glyph unicode="&#xec;" horiz-adv-x="544" d="M25 1536h178l155 -342h-133zM190 0v1024h164v-1024h-164z" />
<glyph unicode="&#xed;" horiz-adv-x="544" d="M172 1194l156 342h178l-201 -342h-133zM190 0v1024h164v-1024h-164z" />
<glyph unicode="&#xee;" horiz-adv-x="544" d="M-53 1180l233 342h185l233 -342h-149l-177 235l-176 -235h-149zM190 0v1024h164v-1024h-164z" />
<glyph unicode="&#xef;" horiz-adv-x="544" d="M-8 1308.5q0 51.5 32.5 84t84.5 32.5q53 0 85.5 -31.5t32.5 -85t-32.5 -85t-85.5 -31.5q-51 0 -84 32.5t-33 84zM190 0v1024h164v-1024h-164zM317 1308.5q0 53.5 33 85t86 31.5q51 0 84 -32.5t33 -84t-33 -84t-84 -32.5q-53 0 -86 31.5t-33 85z" />
<glyph unicode="&#xf0;" horiz-adv-x="1269" d="M127 487q0 231 135 368.5t344 137.5q221 0 334 -129q-47 182 -149 322l-367 -94l-31 125l314 69q-117 117 -287 209h227q123 -72 217 -172l232 66l34 -121l-186 -43q174 -254 174 -635q0 -279 -129 -444.5t-379 -165.5q-223 0 -353 135t-130 372zM297 487 q0 -170 85.5 -267t235.5 -97q156 0 248 106.5t92 257.5q0 168 -88 265.5t-241 97.5q-156 0 -244 -96.5t-88 -266.5z" />
<glyph unicode="&#xf1;" horiz-adv-x="1267" d="M190 0v1024h144l10 -160q100 180 344 180q174 0 286.5 -100t112.5 -289v-655h-163v598q0 303 -252 303q-129 0 -223.5 -88t-94.5 -268v-545h-164zM279 1192q23 274 231 274q63 0 115.5 -34.5t91.5 -69.5t71 -35q80 0 103 141h129q-23 -274 -229 -274q-66 0 -118 35 t-91 69.5t-74 34.5q-78 0 -100 -141h-129z" />
<glyph unicode="&#xf2;" d="M119 512q0 246 137 389t358.5 143t358.5 -143t137 -389t-137 -389t-358.5 -143t-358.5 143t-137 389zM283 512q0 -182 88 -286.5t243.5 -104.5t243.5 104.5t88 286.5t-88 286.5t-243.5 104.5t-243.5 -104.5t-88 -286.5zM367 1536h178l155 -342h-133z" />
<glyph unicode="&#xf3;" d="M119 512q0 246 137 389t358.5 143t358.5 -143t137 -389t-137 -389t-358.5 -143t-358.5 143t-137 389zM283 512q0 -182 88 -286.5t243.5 -104.5t243.5 104.5t88 286.5t-88 286.5t-243.5 104.5t-243.5 -104.5t-88 -286.5zM514 1194l156 342h178l-201 -342h-133z" />
<glyph unicode="&#xf4;" d="M119 512q0 246 137 389t358.5 143t358.5 -143t137 -389t-137 -389t-358.5 -143t-358.5 143t-137 389zM283 512q0 -182 88 -286.5t243.5 -104.5t243.5 104.5t88 286.5t-88 286.5t-243.5 104.5t-243.5 -104.5t-88 -286.5zM289 1180l233 342h185l233 -342h-149l-177 235 l-176 -235h-149z" />
<glyph unicode="&#xf5;" d="M119 512q0 246 137 389t358.5 143t358.5 -143t137 -389t-137 -389t-358.5 -143t-358.5 143t-137 389zM242 1192q23 274 231 274q63 0 115.5 -34.5t91.5 -69.5t72 -35q80 0 102 141h129q-23 -274 -229 -274q-66 0 -118 35t-91 69.5t-74 34.5q-78 0 -100 -141h-129z M283 512q0 -182 88 -286.5t243.5 -104.5t243.5 104.5t88 286.5t-88 286.5t-243.5 104.5t-243.5 -104.5t-88 -286.5z" />
<glyph unicode="&#xf6;" d="M119 512q0 246 137 389t358.5 143t358.5 -143t137 -389t-137 -389t-358.5 -143t-358.5 143t-137 389zM283 512q0 -182 88 -286.5t243.5 -104.5t243.5 104.5t88 286.5t-88 286.5t-243.5 104.5t-243.5 -104.5t-88 -286.5zM299 1308.5q0 51.5 33 84t84 32.5t83.5 -32.5 t32.5 -84t-32.5 -84t-83.5 -32.5t-84 32.5t-33 84zM696 1308.5q0 51.5 33 84t84 32.5t84 -32.5t33 -84t-33 -84t-84 -32.5t-84 32.5t-33 84z" />
<glyph unicode="&#xf7;" horiz-adv-x="1236" d="M121 571v154h995v-154h-995zM485 245.5q0 59.5 37 96.5t96.5 37t96.5 -37t37 -96.5t-37 -96t-96.5 -36.5t-96.5 36.5t-37 96zM485 1046.5q0 59.5 37 96.5t96.5 37t96.5 -37t37 -96.5t-37 -96.5t-96.5 -37t-96.5 37t-37 96.5z" />
<glyph unicode="&#xf8;" d="M113 -61l141 186q-135 145 -135 387q0 246 137 389t358 143q156 0 277 -75l88 116h137l-141 -186q135 -145 135 -387q0 -246 -137 -389t-359 -143q-156 0 -276 75l-88 -116h-137zM283 512q0 -158 67 -260l451 598q-78 53 -187 53q-156 0 -243.5 -104.5t-87.5 -286.5z M428 174q78 -53 186 -53q156 0 244 104.5t88 286.5q0 158 -67 260z" />
<glyph unicode="&#xf9;" horiz-adv-x="1263" d="M180 352v672h164v-629q0 -150 64.5 -211t193.5 -61q127 0 217 87t90 257v557h164v-1024h-143l-10 156q-103 -176 -359 -176q-164 0 -272.5 92t-108.5 280zM379 1516h178l156 -342h-133z" />
<glyph unicode="&#xfa;" horiz-adv-x="1263" d="M180 352v672h164v-629q0 -150 64.5 -211t193.5 -61q127 0 217 87t90 257v557h164v-1024h-143l-10 156q-103 -176 -359 -176q-164 0 -272.5 92t-108.5 280zM526 1174l156 342h178l-201 -342h-133z" />
<glyph unicode="&#xfb;" horiz-adv-x="1263" d="M180 352v672h164v-629q0 -150 64.5 -211t193.5 -61q127 0 217 87t90 257v557h164v-1024h-143l-10 156q-103 -176 -359 -176q-164 0 -272.5 92t-108.5 280zM301 1159l234 342h184l233 -342h-149l-176 236l-176 -236h-150z" />
<glyph unicode="&#xfc;" horiz-adv-x="1263" d="M180 352v672h164v-629q0 -150 64.5 -211t193.5 -61q127 0 217 87t90 257v557h164v-1024h-143l-10 156q-103 -176 -359 -176q-164 0 -272.5 92t-108.5 280zM311 1288q0 51 33 84t84 33t84 -33t33 -84t-33 -84t-84 -33t-84 33t-33 84zM709 1288q0 51 32.5 84t84 33t84 -33 t32.5 -84t-32.5 -84t-84 -33t-84 33t-32.5 84z" />
<glyph unicode="&#xfd;" horiz-adv-x="1056" d="M2 -369l45 144q78 -72 178 -72q59 0 105.5 36t81.5 130l53 133l-428 1022h186l256 -668l64 -182l73 203l240 647h176l-481 -1196q-59 -147 -133 -207.5t-185 -60.5q-137 0 -231 71zM430 1174l156 342h178l-201 -342h-133z" />
<glyph unicode="&#xfe;" horiz-adv-x="1284" d="M190 -430v1925h164v-631q49 82 139 131t201 49q197 0 332 -144t135 -388q0 -242 -136 -387t-333 -145q-111 0 -200 49t-138 131v-590h-164zM354 512q0 -176 88.5 -282.5t233.5 -106.5q150 0 235.5 105.5t85.5 283.5t-84 283.5t-231 105.5t-237.5 -106.5t-90.5 -282.5z " />
<glyph unicode="&#xff;" horiz-adv-x="1056" d="M2 -369l45 144q78 -72 178 -72q59 0 105.5 36t81.5 130l53 133l-428 1022h186l256 -668l64 -182l73 203l240 647h176l-481 -1196q-59 -147 -133 -207.5t-185 -60.5q-137 0 -231 71zM215 1288q0 51 32 84t85 33t85 -33t32 -84t-32 -84t-85 -33t-85 33t-32 84zM612 1288 q0 51 32 84t85 33t85 -33t32 -84t-32 -84t-85 -33t-85 33t-32 84z" />
<glyph unicode="&#x152;" horiz-adv-x="2211" d="M139 676q0 324 167 510t464 186q279 0 430 -219v199h875v-154h-725v-436h551v-154h-551v-454h755v-154h-905v203q-156 -223 -438 -223q-289 0 -456 187t-167 509zM311 676q0 -256 120 -399.5t339 -143.5q195 0 312.5 145.5t117.5 397.5t-117.5 397.5t-312.5 145.5 q-219 0 -339 -143.5t-120 -399.5z" />
<glyph unicode="&#x153;" horiz-adv-x="2009" d="M119 512q0 246 137 389t358 143q283 0 412 -235q125 236 410 235q209 0 330.5 -130.5t121.5 -333.5q0 -57 -8 -115h-772q12 -162 100 -252t234 -90q205 0 297 160l129 -76q-127 -227 -422 -227q-291 0 -420 233q-125 -233 -412 -233q-221 0 -358 143t-137 389zM283 512 q0 -182 88 -286.5t243.5 -104.5t243.5 104.5t88 286.5t-88 286.5t-243.5 104.5t-243.5 -104.5t-88 -286.5zM1114 610h610q-4 137 -83.5 214t-208.5 77t-213.5 -77t-104.5 -214z" />
<glyph unicode="&#x178;" horiz-adv-x="1171" d="M20 1352h195l371 -656l370 656h195l-483 -824v-528h-164v528zM270 1595.5q0 51.5 33 84t84 32.5t84 -32.5t33 -84t-33 -84t-84 -32.5t-84 32.5t-33 84zM668 1595.5q0 51.5 32.5 84t84 32.5t84 -32.5t32.5 -84t-32.5 -84t-84 -32.5t-84 32.5t-32.5 84z" />
<glyph unicode="&#x2c6;" horiz-adv-x="1024" d="M186 1180l234 342h184l234 -342h-150l-176 235l-176 -235h-150z" />
<glyph unicode="&#x2dc;" horiz-adv-x="1024" d="M141 1192q23 274 232 274q63 0 115.5 -34.5t91 -69.5t71.5 -35q80 0 103 141h129q-23 -274 -230 -274q-66 0 -118 35t-90.5 69.5t-73.5 34.5q-78 0 -101 -141h-129z" />
<glyph unicode="&#x2000;" horiz-adv-x="923" />
<glyph unicode="&#x2001;" horiz-adv-x="1847" />
<glyph unicode="&#x2002;" horiz-adv-x="923" />
<glyph unicode="&#x2003;" horiz-adv-x="1847" />
<glyph unicode="&#x2004;" horiz-adv-x="615" />
<glyph unicode="&#x2005;" horiz-adv-x="461" />
<glyph unicode="&#x2006;" horiz-adv-x="307" />
<glyph unicode="&#x2007;" horiz-adv-x="307" />
<glyph unicode="&#x2008;" horiz-adv-x="230" />
<glyph unicode="&#x2009;" horiz-adv-x="369" />
<glyph unicode="&#x200a;" horiz-adv-x="102" />
<glyph unicode="&#x2010;" horiz-adv-x="1044" d="M184 451v170h676v-170h-676z" />
<glyph unicode="&#x2011;" horiz-adv-x="1044" d="M184 451v170h676v-170h-676z" />
<glyph unicode="&#x2012;" horiz-adv-x="1044" d="M184 451v170h676v-170h-676z" />
<glyph unicode="&#x2013;" horiz-adv-x="1359" d="M168 459v153h1024v-153h-1024z" />
<glyph unicode="&#x2014;" horiz-adv-x="2076" d="M168 459v153h1741v-153h-1741z" />
<glyph unicode="&#x2018;" horiz-adv-x="522" d="M109 1087q0 109 55 201t168 146l86 -80q-80 -27 -133.5 -84.5t-67.5 -124.5l8 -4q18 14 58 14q43 0 77.5 -34t34.5 -95q0 -55 -39 -96t-94 -41q-72 0 -112.5 55t-40.5 143z" />
<glyph unicode="&#x2019;" horiz-adv-x="522" d="M113 969q80 27 133 84t67 125l-8 4q-18 -14 -57 -15q-43 0 -78 34t-35 95q0 55 39 96.5t94 41.5q72 0 113 -55.5t41 -143.5q0 -109 -55.5 -201t-167.5 -145z" />
<glyph unicode="&#x201a;" horiz-adv-x="522" d="M113 -219q80 27 133 84t67 125l-8 4q-18 -14 -57 -14q-43 0 -78 33.5t-35 95.5q0 55 39 96t94 41q72 0 113 -55.5t41 -143.5q0 -109 -55.5 -201t-167.5 -145z" />
<glyph unicode="&#x201c;" horiz-adv-x="907" d="M109 1087q0 109 55 201t168 146l86 -80q-80 -27 -133.5 -84.5t-67.5 -124.5l8 -4q18 14 58 14q43 0 77.5 -34t34.5 -95q0 -55 -39 -96t-94 -41q-72 0 -112.5 55t-40.5 143zM494 1087q0 109 55 201t168 146l86 -80q-80 -27 -133.5 -84.5t-67.5 -124.5l8 -4q18 14 58 14 q43 0 77.5 -34t34.5 -95q0 -55 -39 -96t-94 -41q-72 0 -112.5 55t-40.5 143z" />
<glyph unicode="&#x201d;" horiz-adv-x="907" d="M113 969q80 27 133 84t67 125l-8 4q-18 -14 -57 -15q-43 0 -78 34t-35 95q0 55 39 96.5t94 41.5q72 0 113 -55.5t41 -143.5q0 -109 -55.5 -201t-167.5 -145zM498 969q80 27 133 84t67 125l-8 4q-18 -14 -57 -15q-43 0 -78 34t-35 95q0 55 39 96.5t94 41.5q72 0 113 -55.5 t41 -143.5q0 -109 -55.5 -201t-167.5 -145z" />
<glyph unicode="&#x201e;" horiz-adv-x="907" d="M113 -219q80 27 133 84t67 125l-8 4q-18 -14 -57 -14q-43 0 -78 33.5t-35 95.5q0 55 39 96t94 41q72 0 113 -55.5t41 -143.5q0 -109 -55.5 -201t-167.5 -145zM498 -219q80 27 133 84t67 125l-8 4q-18 -14 -57 -14q-43 0 -78 33.5t-35 95.5q0 55 39 96t94 41 q72 0 113 -55.5t41 -143.5q0 -109 -55.5 -201t-167.5 -145z" />
<glyph unicode="&#x2022;" horiz-adv-x="880" d="M184 690.5q0 106.5 73 177t183 70.5q113 0 184.5 -69.5t71.5 -178t-71.5 -178.5t-184.5 -70q-111 0 -183.5 71t-72.5 177.5z" />
<glyph unicode="&#x2026;" horiz-adv-x="1781" d="M164 112.5q0 59.5 37 96.5t96 37t96 -37t37 -96.5t-37 -96t-96 -36.5t-96 36.5t-37 96zM758 112.5q0 59.5 36.5 96.5t96 37t96.5 -37t37 -96.5t-37 -96t-96.5 -36.5t-96 36.5t-36.5 96zM1352 112.5q0 59.5 36.5 96.5t96 37t96.5 -37t37 -96.5t-37 -96t-96.5 -36.5 t-96 36.5t-36.5 96z" />
<glyph unicode="&#x202f;" horiz-adv-x="369" />
<glyph unicode="&#x2039;" horiz-adv-x="647" d="M104 543l258 401h179l-262 -401l262 -402h-179z" />
<glyph unicode="&#x203a;" horiz-adv-x="647" d="M106 141l263 402l-263 401h179l258 -401l-258 -402h-179z" />
<glyph unicode="&#x205f;" horiz-adv-x="461" />
<glyph unicode="&#x20ac;" d="M35 438v133h160q-4 66 -5 105q0 49 3 72h-158v133h174q43 231 179 361t341 130q174 0 290 -81t155 -234l-148 -70q-18 115 -94 178.5t-189 63.5q-131 0 -229 -92.5t-137 -255.5h467l-41 -133h-447q-2 -23 -2 -72q0 -39 4 -105h404l-41 -133h-338q39 -150 128 -232.5 t214 -82.5q133 0 219.5 71.5t106.5 206.5l149 -55q-41 -174 -166 -270t-311 -96q-199 0 -331 120.5t-179 337.5h-178z" />
<glyph unicode="&#x2122;" horiz-adv-x="1654" d="M82 1241v111h555v-111h-205v-565h-143v565h-207zM766 676v676h180l139 -369l48 -131h4l45 131l141 369h178v-676h-141v323l14 179h-2l-18 -56l-168 -446h-103l-170 446l-18 56h-2l14 -179v-323h-141z" />
<glyph unicode="&#x25fc;" horiz-adv-x="1024" d="M0 0v1024h1024v-1024h-1024z" />
<glyph unicode="&#xfb03;" horiz-adv-x="2154" d="M66 883v141h204v172q0 141 86 225t250 84q117 0 174 -47l-43 -133q-48 31 -116 31q-186 0 -187 -176v-156h342v-141h-342v-883h-164v883h-204zM870 883v141h205v172q0 141 86 225t250 84q117 0 174 -47l-43 -133q-49 31 -117 31q-186 0 -186 -176v-156h342v-141h-342 v-883h-164v883h-205zM1759 1343.5q0 55.5 34 89t89 33.5t89 -33.5t34 -89t-34 -89t-89 -33.5t-89 33.5t-34 89zM1800 0v1024h164v-1024h-164z" />
<glyph unicode="&#xfb04;" horiz-adv-x="2236" d="M66 883v141h204v172q0 141 86 225t250 84q117 0 174 -47l-43 -133q-48 31 -116 31q-186 0 -187 -176v-156h342v-141h-342v-883h-164v883h-204zM870 883v141h205v172q0 141 86 225t250 84q117 0 174 -47l-43 -133q-49 31 -117 31q-186 0 -186 -176v-156h342v-141h-342 v-883h-164v883h-205zM1792 254v1241h164v-1235q0 -76 27.5 -106.5t93.5 -30.5q63 0 139 29l-27 -144q-68 -29 -151 -28q-246 0 -246 274z" />
</font>
</defs>
</svg>
